<svg xmlns="http://www.w3.org/2000/svg" width="450" height="432" viewBox="0 0 718 700">
  <g id="Polygon_3" data-name="Polygon 3" fill="#1e1e1e">
    <path d="M 269.5922546386719 650.78173828125 C 258.6483764648438 650.78173828125 247.8275299072266 648.9196166992188 237.4286193847656 645.2467041015625 C 227.1256866455078 641.60791015625 217.5804595947266 636.3151245117188 209.0579986572266 629.5155029296875 C 200.3703918457031 622.5841064453125 193.0273895263672 614.305908203125 187.2330017089844 604.9107055664063 C 181.1790008544922 595.0946044921875 176.9590759277344 584.2738647460938 174.6904602050781 572.749267578125 C 168.5610809326172 541.6114501953125 147.5926208496094 515.3178100585938 118.5997695922852 502.413330078125 L 118.5966186523438 502.4118957519531 L 118.5950164794922 502.4112243652344 C 111.3928070068359 499.2052001953125 104.6341094970703 495.173095703125 98.50608062744141 490.4267272949219 C 92.58484649658203 485.8404235839844 87.20745849609375 480.5538024902344 82.52323150634766 474.7137451171875 C 77.95477294921875 469.0179748535156 74.02707672119141 462.7742614746094 70.84930419921875 456.1559753417969 C 67.71323394775391 449.6245727539063 65.30330657958984 442.720947265625 63.68638610839844 435.6368713378906 C 62.06953811645508 428.5528869628906 61.24546051025391 421.2872619628906 61.23707580566406 414.0419616699219 C 61.22861480712891 406.7003479003906 62.05823135375977 399.3708190917969 63.70299911499023 392.2568969726563 C 65.38938140869141 384.9627990722656 67.94046020507813 377.8665771484375 71.28546142578125 371.1653442382813 C 74.74692535400391 364.2305908203125 79.08647155761719 357.665771484375 84.18401336669922 351.652587890625 L 84.18422698974609 351.65234375 L 84.18861389160156 351.6471862792969 C 104.7110748291016 327.4412536621094 112.1946182250977 294.6537170410156 104.2070007324219 263.9404907226563 L 104.2067184448242 263.939453125 C 102.2552337646484 256.4357299804688 101.1953048706055 248.7658081054688 101.0564651489258 241.1429595947266 C 100.9223098754883 233.7754211425781 101.6463088989258 226.39111328125 103.2083053588867 219.1949615478516 C 104.7317657470703 212.1763458251953 107.0588455200195 205.3029632568359 110.1248474121094 198.7656555175781 C 113.1493072509766 192.3168792724609 116.89892578125 186.1809539794922 121.2694625854492 180.5283508300781 C 125.6474609375 174.8661193847656 130.6529998779297 169.6829681396484 136.1469268798828 165.1229553222656 C 141.7072296142578 160.5078887939453 147.7781524658203 156.5230407714844 154.1911468505859 153.2791900634766 C 160.7576141357422 149.9578094482422 167.7117767333984 147.3995056152344 174.8604583740234 145.6755828857422 C 182.2499237060547 143.8935699462891 189.9062347412109 142.9900360107422 197.6167755126953 142.9900360107422 C 198.6133117675781 142.9900360107422 199.6253051757813 143.0052642822266 200.6247711181641 143.0352630615234 L 200.6322326660156 143.0354919433594 L 200.6328887939453 143.0354919433594 C 201.6051788330078 143.0646514892578 202.5911712646484 143.0794219970703 203.5638427734375 143.0794219970703 C 234.1376953125 143.0796508789063 263.3393859863281 128.4712677001953 281.678466796875 104.0019607543945 L 281.686767578125 103.9909591674805 L 281.6873474121094 103.9900894165039 C 286.4142456054688 97.68507385253906 291.8471984863281 91.99565124511719 297.8356018066406 87.07957458496094 C 303.6245422363281 82.3272705078125 309.9751586914063 78.26103973388672 316.7111511230469 74.99380493164063 C 323.2807006835938 71.80734252929688 330.2419128417969 69.36750030517578 337.4013977050781 67.74203491210938 C 344.4669189453125 66.13796234130859 351.7337036132813 65.32465362548828 359 65.32465362548828 C 366.2662353515625 65.32465362548828 373.5329895019531 66.13796234130859 380.5985412597656 67.74203491210938 C 387.7579956054688 69.36750030517578 394.71923828125 71.80734252929688 401.2887573242188 74.99380493164063 C 408.0247802734375 78.26103973388672 414.3753967285156 82.3272705078125 420.164306640625 87.07957458496094 C 426.1563720703125 91.99864959716797 431.5923767089844 97.69211578369141 436.3213195800781 104.0017318725586 L 436.3426208496094 104.0302658081055 L 436.3431396484375 104.0307769775391 C 454.6831970214844 128.4837493896484 483.8732604980469 143.0794219970703 514.4361572265625 143.0794219970703 C 515.4111328125 143.0794219970703 516.3998413085938 143.0645751953125 517.3748168945313 143.0352630615234 L 517.4483032226563 143.0330352783203 L 517.4483642578125 143.0330200195313 C 518.4240112304688 143.0044555664063 519.410888671875 142.9899597167969 520.383056640625 142.9899597167969 C 528.0942993164063 142.9899597167969 535.7511596679688 143.8934173583984 543.1409912109375 145.6753387451172 C 550.2901000976563 147.3991088867188 557.2445678710938 149.9571838378906 563.8110961914063 153.2784271240234 C 570.2242431640625 156.5221099853516 576.2952270507813 160.5066528320313 581.85546875 165.1215057373047 C 587.349365234375 169.6813507080078 592.3547973632813 174.8642730712891 596.7326049804688 180.5263519287109 C 601.1030883789063 186.1788024902344 604.8525390625 192.3146514892578 607.8768310546875 198.763427734375 C 610.9426879882813 205.3007354736328 613.26953125 212.1741943359375 614.7928466796875 219.1929626464844 C 616.3546142578125 226.3891906738281 617.078369140625 233.7738037109375 616.9439697265625 241.1416473388672 C 616.8050537109375 248.7592163085938 615.7463989257813 256.4240417480469 613.7974243164063 263.9232788085938 L 613.79736328125 263.92333984375 L 613.7929077148438 263.9403381347656 C 605.8052978515625 294.6537170410156 613.288818359375 327.4412536621094 633.8114013671875 351.6471252441406 L 633.8151245117188 351.6516418457031 L 633.816650390625 351.6533203125 C 638.913818359375 357.6661987304688 643.2532958984375 364.2309265136719 646.7145385742188 371.165283203125 C 650.0594482421875 377.8664855957031 652.610595703125 384.9627380371094 654.2969970703125 392.2568054199219 C 655.9417724609375 399.3706665039063 656.7713623046875 406.7002563476563 656.762939453125 414.0418701171875 C 656.7545166015625 421.2872009277344 655.9304809570313 428.552734375 654.3135986328125 435.6368103027344 C 652.6967163085938 442.7207946777344 650.2867431640625 449.6244201660156 647.1506958007813 456.1558837890625 C 643.972900390625 462.7742004394531 640.0452270507813 469.0178833007813 635.4767456054688 474.7136535644531 C 630.7926025390625 480.5537414550781 625.4151611328125 485.84033203125 619.493896484375 490.4266662597656 C 613.3689575195313 495.1707763671875 606.613525390625 499.2013549804688 599.4152221679688 502.4067077636719 L 599.41455078125 502.4069519042969 L 599.4002075195313 502.413330078125 C 570.407470703125 515.3178100585938 549.4390258789063 541.6114501953125 543.3096313476563 572.748779296875 L 543.3088989257813 572.752685546875 C 541.040283203125 584.2745361328125 536.8204345703125 595.0938720703125 530.7667846679688 604.9083251953125 C 524.9722290039063 614.3027954101563 517.6288452148438 622.5806274414063 508.9407653808594 629.5120849609375 C 500.4180908203125 636.3115844726563 490.8726806640625 641.6045532226563 480.5697631835938 645.244140625 C 470.16845703125 648.9183349609375 459.3446044921875 650.7814331054688 448.39892578125 650.78173828125 C 440.8681640625 650.7818603515625 433.337158203125 649.8847045898438 426.0150756835938 648.1151123046875 C 418.4351501464844 646.2832641601563 411.0219116210938 643.501220703125 403.9813842773438 639.84619140625 C 390.14453125 632.6630249023438 374.5902404785156 628.8662719726563 359.0000915527344 628.8662719726563 C 343.4098510742188 628.8662719726563 327.8555297851563 632.6630249023438 314.0187072753906 639.84619140625 C 306.9805297851563 643.4998779296875 299.5673828125 646.281494140625 291.9849853515625 648.1138305664063 C 284.6619873046875 649.8834228515625 277.1310119628906 650.7810668945313 269.60107421875 650.78173828125 C 269.5984191894531 650.78173828125 269.5949401855469 650.78173828125 269.5922546386719 650.78173828125 Z" stroke="none"/>
    <path d="M 358.9999084472656 65.82470703125 C 351.7708435058594 65.82470703125 344.5413208007813 66.63385009765625 337.5119934082031 68.22967529296875 C 330.3896789550781 69.8466796875 323.4646606445313 72.2738037109375 316.9293212890625 75.4437255859375 C 310.2286682128906 78.69378662109375 303.9114074707031 82.73870849609375 298.15283203125 87.466064453125 C 292.214599609375 92.34088134765625 286.8248596191406 97.9808349609375 282.1326293945313 104.2296752929688 L 282.132568359375 104.2297973632813 L 282.0785827636719 104.3017578125 C 263.645751953125 128.8961791992188 234.2943420410156 143.5794677734375 203.5636596679688 143.5794677734375 C 202.584716796875 143.5794677734375 201.5925903320313 143.5645751953125 200.6146240234375 143.5352783203125 L 200.6097412109375 143.5350952148438 C 199.6002197265625 143.5047607421875 198.6239013671875 143.4900512695313 197.625 143.4900512695313 L 197.6167602539063 143.4900512695313 C 189.9456787109375 143.490966796875 182.3286743164063 144.3906860351563 174.9773559570313 146.1644287109375 C 167.8659057617188 147.8803100585938 160.947998046875 150.426025390625 154.4156494140625 153.73095703125 C 148.0357666015625 156.9588623046875 141.9959716796875 160.9238891601563 136.46435546875 165.5159301757813 C 130.9982299804688 170.0535278320313 126.0181884765625 175.2109375 121.6624755859375 180.8450317382813 C 117.3150024414063 186.4684448242188 113.5852661132813 192.5723876953125 110.5768432617188 198.9873046875 C 107.5271606445313 205.4900512695313 105.2125854492188 212.3268737792969 103.697265625 219.307861328125 C 102.1436767578125 226.4652099609375 101.423583984375 233.8097839355469 101.5569458007813 241.137451171875 C 101.6949462890625 248.7179260253906 102.7489013671875 256.3458251953125 104.6893310546875 263.8086547851563 L 104.69091796875 263.814697265625 C 112.7193603515625 294.6851196289063 105.197509765625 327.640625 84.5699462890625 351.9705505371094 L 84.56243896484375 351.9793395996094 C 79.49200439453125 357.9610595703125 75.17578125 364.4909973144531 71.73272705078125 371.3886108398438 C 68.4053955078125 378.0547180175781 65.86767578125 385.1137084960938 64.1900634765625 392.3695373535156 C 62.55389404296875 399.4463806152344 61.72857666015625 406.73779296875 61.737060546875 414.0413818359375 C 61.74542236328125 421.2495422363281 62.56524658203125 428.4778747558594 64.173828125 435.525634765625 C 65.782470703125 442.5734558105469 68.1800537109375 449.4417114257813 71.30010986328125 455.9396057128906 C 74.4613037109375 462.5235290527344 78.36859130859375 468.7348022460938 82.91326904296875 474.4009399414063 C 87.57281494140625 480.2102661132813 92.92205810546875 485.4692077636719 98.812255859375 490.0313720703125 C 104.90185546875 494.748046875 111.6177978515625 498.755859375 118.774658203125 501.9438781738281 L 118.8031616210938 501.95654296875 C 147.9158935546875 514.9143676757813 168.9789428710938 541.303466796875 175.1627807617188 572.5602416992188 L 175.1630859375 572.56103515625 L 175.1810913085938 572.652587890625 C 177.4381103515625 584.1182861328125 181.6361694335938 594.8829345703125 187.6585693359375 604.647705078125 C 193.422607421875 613.9932250976563 200.7272338867188 622.2279663085938 209.3698425292969 629.1231079101563 C 217.8484191894531 635.887451171875 227.3447570800781 641.1530151367188 237.5950927734375 644.7735595703125 C 247.9427490234375 648.428466796875 258.7110900878906 650.2816162109375 269.6010131835938 650.2816162109375 C 277.0906677246094 650.2816162109375 284.5821533203125 649.3888549804688 291.8674926757813 647.628173828125 C 299.4100952148438 645.8053588867188 306.7853393554688 643.0377807617188 313.788330078125 639.40234375 C 327.6960754394531 632.1824340820313 343.3299865722656 628.3662109375 359.0000915527344 628.3662109375 C 374.6700744628906 628.3662109375 390.3040771484375 632.1824340820313 404.2117614746094 639.40234375 C 411.2164306640625 643.0386962890625 418.5915832519531 645.8064575195313 426.132568359375 647.6289672851563 C 433.4160766601563 649.3890991210938 440.9075927734375 650.2816162109375 448.3989868164063 650.2816162109375 C 459.2877502441406 650.2816162109375 470.0556030273438 648.4282836914063 480.4032592773438 644.77294921875 C 490.6534118652344 641.152099609375 500.14990234375 635.8862915039063 508.62890625 629.1216430664063 C 517.2719116210938 622.2261352539063 524.5770263671875 613.9913940429688 530.3411865234375 604.6459350585938 C 536.3615112304688 594.8854370117188 540.55859375 584.1262817382813 542.816162109375 572.6671752929688 L 542.819091796875 572.652099609375 C 548.9798583984375 541.3553466796875 570.0556030273438 514.9271240234375 599.1968383789063 501.95654296875 L 599.2044067382813 501.9531860351563 C 606.3690795898438 498.7635498046875 613.0921020507813 494.752685546875 619.187744140625 490.0313720703125 C 625.0779418945313 485.4691162109375 630.4270629882813 480.2102661132813 635.0867309570313 474.40087890625 C 639.6314086914063 468.7347106933594 643.5386962890625 462.5234680175781 646.6998901367188 455.939453125 C 649.8199462890625 449.4415283203125 652.217529296875 442.5732727050781 653.826171875 435.5255432128906 C 655.4347534179688 428.4776916503906 656.2545776367188 421.2493591308594 656.262939453125 414.0412902832031 C 656.2713623046875 406.7377014160156 655.4459838867188 399.4461975097656 653.809814453125 392.369384765625 C 652.1322631835938 385.1136169433594 649.5946044921875 378.0546264648438 646.2671508789063 371.3885498046875 C 642.8241577148438 364.4908142089844 638.5077514648438 357.9608154296875 633.4373168945313 351.9790649414063 L 633.4299926757813 351.970458984375 C 612.8062133789063 327.6451721191406 605.2830810546875 294.6979370117188 613.304443359375 263.8321838378906 L 613.3091430664063 263.8137817382813 C 615.2508544921875 256.3479614257813 616.3053588867188 248.71728515625 616.4434814453125 241.1337890625 C 616.576904296875 233.8049621582031 615.8567504882813 226.4593811035156 614.302978515625 219.301025390625 C 612.7874145507813 212.3189392089844 610.4725341796875 205.4812622070313 607.4224243164063 198.9779663085938 C 604.4133911132813 192.5623168945313 600.68310546875 186.457763671875 596.3348999023438 180.834228515625 C 591.9793090820313 175.2008666992188 586.9993896484375 170.0443115234375 581.53369140625 165.5076293945313 C 576.002197265625 160.9164428710938 569.9627685546875 156.9522705078125 563.5830688476563 153.725341796875 C 557.0510864257813 150.4212646484375 550.1334228515625 147.87646484375 543.0221557617188 146.16162109375 C 535.6710815429688 144.3887939453125 528.05419921875 143.4899291992188 520.383056640625 143.4899291992188 C 519.391357421875 143.4899291992188 518.3843383789063 143.505126953125 517.3900756835938 143.5350341796875 L 517.3881225585938 143.5350952148438 C 516.4100952148438 143.564453125 515.4168701171875 143.579345703125 514.4360961914063 143.579345703125 C 483.7297973632813 143.579345703125 454.3997802734375 128.918212890625 435.9644470214844 104.359130859375 L 435.9639282226563 104.358642578125 L 435.9212646484375 104.3016357421875 C 431.2163391113281 98.02392578125 425.8081665039063 92.35968017578125 419.8469848632813 87.466064453125 C 414.0885009765625 82.73870849609375 407.7711791992188 78.69378662109375 401.0704956054688 75.4437255859375 C 394.5352478027344 72.2738037109375 387.6101684570313 69.8466796875 380.4878234863281 68.22967529296875 C 373.4585876464844 66.63385009765625 366.22900390625 65.82470703125 358.9999084472656 65.82470703125 M 358.9999694824219 64.82470703125 C 388.1482543945313 64.82470703125 417.2965393066406 77.78375244140625 436.7214050292969 103.7018432617188 L 436.7215881347656 103.7020263671875 C 455.09326171875 128.2149047851563 483.916259765625 142.5794067382813 514.43603515625 142.5794067382813 C 515.41064453125 142.5794067382813 516.382080078125 142.5648193359375 517.35986328125 142.5354614257813 L 517.3599853515625 142.5354614257813 C 582.1092529296875 140.5878295898438 630.5817260742188 201.3722534179688 614.2769775390625 264.0654602050781 L 614.27685546875 264.0661926269531 C 606.3203125 294.6600341796875 613.75 327.2120361328125 634.1927490234375 351.3237915039063 L 634.193359375 351.324462890625 C 676.0848999023438 400.7348022460938 658.785400390625 476.5286865234375 599.6040649414063 502.869873046875 L 599.603515625 502.8701171875 C 570.7235107421875 515.7244873046875 549.90576171875 541.8291015625 543.8002319335938 572.8452758789063 L 543.8001708984375 572.8458251953125 C 531.28857421875 636.4048461914063 461.2442016601563 670.136474609375 403.7510070800781 640.2898559570313 L 403.7509155273438 640.2898559570313 C 389.7245178222656 633.00830078125 374.359619140625 629.3662109375 359.0000915527344 629.3662109375 C 343.6368408203125 629.3662109375 328.2789611816406 633.006591796875 314.2490844726563 640.2898559570313 C 299.7915344238281 647.7952270507813 284.5314636230469 651.2816162109375 269.6010437011719 651.2816162109375 C 225.1575927734375 651.2816162109375 183.565185546875 620.4220581054688 174.1998901367188 572.8458251953125 L 174.1997680664063 572.8453369140625 C 168.09423828125 541.8291015625 147.2764892578125 515.724365234375 118.396484375 502.8701171875 L 118.3958129882813 502.869873046875 C 59.214599609375 476.52880859375 41.91510009765625 400.73486328125 83.80657958984375 351.3245239257813 L 83.80718994140625 351.3238830566406 C 104.2498168945313 327.2120361328125 111.6795654296875 294.6601257324219 103.7230834960938 264.0663757324219 L 103.7228393554688 264.0654602050781 C 87.6739501953125 202.355712890625 134.397216796875 142.4974365234375 197.61669921875 142.4900512695313 C 198.6241455078125 142.4899291992188 199.6240844726563 142.5050048828125 200.6397705078125 142.5355224609375 L 200.64013671875 142.5355224609375 C 232.2377319335938 143.486328125 262.3199768066406 128.9977416992188 281.2784118652344 103.7020263671875 L 281.2785034179688 103.7018432617188 C 300.703369140625 77.78375244140625 329.8516540527344 64.82470703125 358.9999694824219 64.82470703125 Z" stroke="none" fill="#707070"/>
  </g>
</svg>